<?xml version="1.0" standalone="no"?>
<!DOCTYPE svg PUBLIC "-//W3C//DTD SVG 20010904//EN"
 "http://www.w3.org/TR/2001/REC-SVG-20010904/DTD/svg10.dtd">
<svg version="1.0" xmlns="http://www.w3.org/2000/svg"
 width="600.000000pt" height="500.000000pt" viewBox="0 0 600.000000 500.000000"
 preserveAspectRatio="xMidYMid meet">
<metadata>
Created by potrace 1.12, written by Peter Selinger 2001-2015
</metadata>
<g transform="translate(0.000000,500.000000) scale(0.100000,-0.100000)"
fill="#000000" stroke="none">
<path d="M2810 4274 c-14 -2 -66 -11 -117 -19 -347 -56 -695 -237 -953 -495
-256 -257 -427 -583 -497 -953 -25 -130 -25 -484 0 -614 130 -684 611 -1217
1270 -1407 173 -50 256 -61 487 -61 231 0 314 11 487 61 596 172 1055 631
1227 1227 50 173 61 256 61 487 0 231 -11 314 -61 487 -189 657 -725 1141
-1401 1269 -84 16 -443 29 -503 18z m329 -64 c426 -38 806 -219 1098 -523 657
-685 634 -1767 -50 -2424 -665 -638 -1709 -638 -2374 0 -585 561 -698 1456
-270 2142 308 495 840 796 1437 814 25 0 96 -4 159 -9z"/>
<path d="M2970 4166 c-6 -8 -10 -25 -8 -38 2 -19 9 -23 38 -23 29 0 36 4 38
23 4 28 -14 52 -38 52 -10 0 -23 -7 -30 -14z"/>
<path d="M2680 4131 c-19 -36 14 -70 53 -55 22 8 31 42 17 59 -18 21 -57 18
-70 -4z"/>
<path d="M3250 4135 c-15 -18 -4 -52 19 -60 40 -12 70 20 51 56 -13 22 -52 25
-70 4z"/>
<path d="M2410 4065 c-7 -8 -10 -25 -6 -40 5 -20 13 -25 36 -25 23 0 31 5 36
25 7 29 -10 55 -36 55 -10 0 -23 -7 -30 -15z"/>
<path d="M3530 4065 c-26 -32 13 -81 48 -59 34 22 22 74 -18 74 -10 0 -23 -7
-30 -15z"/>
<path d="M2152 3948 c-29 -29 -2 -72 40 -66 42 6 32 78 -11 78 -9 0 -22 -5
-29 -12z"/>
<path d="M3791 3946 c-7 -8 -11 -25 -9 -38 2 -18 9 -23 32 -23 36 0 56 27 40
53 -14 22 -48 27 -63 8z"/>
<path d="M1928 3789 c-31 -18 -17 -79 18 -79 17 0 44 28 44 45 0 14 -27 45
-38 45 -4 0 -15 -5 -24 -11z"/>
<path d="M4026 3784 c-9 -8 -16 -22 -16 -29 0 -17 27 -45 44 -45 36 0 49 62
17 80 -25 13 -27 13 -45 -6z"/>
<path d="M3121 3578 c-6 -68 -14 -138 -18 -155 -3 -21 -1 -33 6 -33 6 0 11 17
11 39 0 63 7 72 46 65 137 -25 174 165 39 196 -74 17 -70 22 -84 -112z m130
73 c32 -33 36 -58 14 -100 -17 -34 -32 -41 -92 -41 l-45 0 7 78 c4 42 9 80 12
85 2 4 20 7 39 7 26 0 44 -8 65 -29z"/>
<path d="M1710 3571 c-19 -36 14 -70 53 -55 22 8 31 42 17 59 -18 21 -57 18
-70 -4z"/>
<path d="M4220 3575 c-15 -18 -4 -52 19 -60 40 -12 70 20 51 56 -13 22 -52 25
-70 4z"/>
<path d="M2355 3553 c-27 -14 -51 -27 -53 -28 -6 -5 122 -275 130 -275 4 0 -6
30 -22 66 -17 36 -30 67 -30 69 0 1 23 12 50 24 28 12 50 26 50 31 0 6 -22 -1
-50 -15 -27 -14 -52 -25 -55 -25 -9 0 -55 112 -50 120 3 5 25 16 50 26 25 9
45 21 45 25 0 13 -10 11 -65 -18z"/>
<path d="M2862 3558 c-19 -19 -22 -20 -22 -5 0 9 -5 17 -11 17 -6 0 -8 -8 -5
-17 3 -10 8 -51 12 -91 4 -40 10 -75 15 -77 4 -3 5 26 2 64 -5 65 -4 71 21 96
14 14 26 28 26 30 0 11 -17 3 -38 -17z"/>
<path d="M2598 3521 c-28 -25 -33 -36 -33 -76 0 -40 5 -51 33 -76 88 -79 210
16 160 126 -27 59 -109 72 -160 26z m107 4 c58 -28 71 -88 28 -134 -40 -43
-90 -45 -128 -6 -44 43 -30 115 28 140 40 18 33 18 72 0z"/>
<path d="M3383 3520 c-44 -27 -62 -84 -39 -128 24 -47 58 -65 111 -60 35 4 45
2 48 -11 2 -9 16 22 30 70 31 99 32 100 12 93 -9 -4 -18 1 -21 10 -8 21 -55
46 -86 46 -13 0 -37 -9 -55 -20z m108 -13 c50 -39 48 -115 -4 -148 -89 -55
-186 63 -112 136 27 28 88 34 116 12z"/>
<path d="M3615 3374 c-48 -90 -51 -99 -36 -90 6 4 25 34 42 67 16 33 36 62 44
66 26 10 65 -7 77 -33 10 -22 7 -34 -21 -91 -40 -82 -34 -95 8 -17 50 94 35
154 -40 154 -15 0 -29 4 -31 10 -1 5 -21 -25 -43 -66z"/>
<path d="M2066 3369 c8 -11 164 -216 181 -238 2 -2 5 -2 8 1 7 6 -173 242
-188 247 -9 3 -9 1 -1 -10z"/>
<path d="M1552 3348 c-29 -29 -2 -72 40 -66 42 6 32 78 -11 78 -9 0 -22 -5
-29 -12z"/>
<path d="M4391 3346 c-7 -8 -11 -25 -9 -38 2 -18 9 -23 32 -23 36 0 56 27 40
53 -14 22 -48 27 -63 8z"/>
<path d="M2016 3288 c116 -138 178 -208 182 -204 6 6 -189 236 -201 236 -5 0
4 -15 19 -32z"/>
<path d="M4049 3255 c-44 -55 -44 -55 -54 -31 -34 80 -119 103 -176 47 -41
-41 -41 -105 -1 -145 16 -14 45 -29 66 -33 29 -5 34 -8 25 -19 -6 -8 -8 -14
-3 -14 12 1 198 240 191 246 -3 3 -24 -20 -48 -51z m-98 6 c41 -41 40 -90 -2
-125 -41 -35 -83 -34 -120 3 -33 33 -38 74 -13 109 34 49 93 54 135 13z"/>
<path d="M1929 3111 c-87 -87 29 -228 131 -159 38 26 56 71 46 113 -19 77
-120 103 -177 46z m120 4 c33 -16 41 -33 41 -81 0 -72 -84 -110 -143 -64 -48
38 -42 116 12 145 34 18 55 18 90 0z"/>
<path d="M1432 3088 c-30 -30 0 -75 43 -64 19 5 25 13 25 35 0 38 -41 56 -68
29z"/>
<path d="M4027 3074 c-57 -57 -40 -143 34 -172 31 -12 37 -18 28 -29 -24 -28
6 -10 72 44 66 55 86 79 54 67 -11 -5 -15 2 -15 26 0 79 -115 122 -173 64z
m134 -13 c20 -20 29 -39 29 -61 0 -40 -47 -90 -85 -90 -57 0 -94 36 -95 92 0
28 7 42 31 62 41 35 83 34 120 -3z"/>
<path d="M4513 3093 c-7 -2 -13 -18 -13 -34 0 -22 6 -30 25 -35 29 -7 55 10
55 35 0 33 -32 49 -67 34z"/>
<path d="M1693 2968 c-26 -29 -57 -78 -52 -82 33 -25 252 -156 256 -153 3 3
-14 18 -36 33 -46 30 -47 31 -25 62 13 19 25 22 82 24 l67 2 -65 5 -65 6 -1
39 c-2 54 -39 86 -98 86 -31 0 -48 -6 -63 -22z m122 -13 c16 -15 25 -36 25
-55 0 -34 -25 -90 -40 -90 -14 0 -140 81 -140 90 0 5 15 25 34 44 41 44 85 48
121 11z"/>
<path d="M4243 2868 c-4 -7 -10 -33 -13 -57 -6 -51 -29 -73 -57 -55 -12 8 -17
23 -17 43 2 36 -1 38 -16 12 -13 -25 5 -68 32 -77 34 -11 65 20 71 72 5 51 21
68 49 53 13 -7 17 -16 12 -31 -4 -14 -2 -18 5 -14 15 9 14 39 -1 54 -16 16
-55 15 -65 0z"/>
<path d="M1368 2819 c-31 -18 -17 -79 18 -79 17 0 44 28 44 45 0 14 -27 45
-38 45 -4 0 -15 -5 -24 -11z"/>
<path d="M4586 2814 c-9 -8 -16 -22 -16 -29 0 -17 27 -45 44 -45 36 0 49 62
17 80 -25 13 -27 13 -45 -6z"/>
<path d="M2375 2773 c-47 -10 -108 -46 -145 -84 -110 -114 -86 -326 53 -472
l49 -52 -2 -75 c-2 -109 22 -210 76 -320 87 -176 251 -307 444 -356 86 -22
244 -22 330 1 193 50 358 185 445 363 56 114 81 250 66 367 l-8 70 36 41 c95
108 142 260 109 355 -36 107 -115 160 -244 167 -88 5 -153 -10 -247 -54 -47
-22 -48 -22 -100 -4 -143 50 -297 51 -444 1 -73 -24 -90 -27 -103 -16 -36 32
-146 66 -220 69 -41 2 -84 2 -95 -1z m847 -95 c96 -36 171 -84 242 -154 73
-74 118 -146 153 -246 23 -63 27 -90 27 -198 1 -111 -2 -133 -27 -203 -97
-276 -356 -451 -642 -434 -163 9 -297 70 -415 189 -78 78 -141 189 -165 289
-19 84 -19 235 1 311 58 225 240 407 462 463 92 23 280 14 364 -17z"/>
<path d="M2750 2341 c-113 -37 -190 -137 -190 -249 0 -162 160 -213 299 -96
71 60 108 177 81 258 -22 69 -116 111 -190 87z"/>
<path d="M3153 2310 c-90 -54 -91 -193 -2 -294 55 -63 109 -90 181 -90 61 -1
93 15 132 68 49 65 9 210 -75 277 -77 61 -174 77 -236 39z"/>
<path d="M2910 1850 c0 -20 29 -68 45 -74 9 -3 32 -6 51 -6 39 0 84 39 84 71
0 17 -9 19 -90 19 -56 0 -90 -4 -90 -10z"/>
<path d="M1332 2528 c-29 -29 -3 -72 40 -66 19 2 23 9 23 38 0 30 -4 35 -25
38 -14 2 -31 -3 -38 -10z"/>
<path d="M4604 2526 c-3 -8 -4 -25 -2 -38 2 -18 9 -23 32 -23 36 0 56 27 40
53 -14 22 -62 28 -70 8z"/>
<path d="M1362 2248 c-25 -25 -4 -78 32 -78 10 0 36 32 36 45 0 17 -27 45 -44
45 -6 0 -17 -5 -24 -12z"/>
<path d="M4586 2244 c-9 -8 -16 -22 -16 -29 0 -13 26 -45 36 -45 19 0 44 24
44 43 0 43 -35 60 -64 31z"/>
<path d="M1432 1968 c-30 -30 0 -75 43 -64 19 5 25 13 25 35 0 38 -41 56 -68
29z"/>
<path d="M4513 1973 c-7 -2 -13 -18 -13 -34 0 -22 6 -30 25 -35 29 -7 55 10
55 35 0 33 -32 49 -67 34z"/>
<path d="M1551 1706 c-16 -19 -11 -46 12 -60 25 -16 52 4 52 40 0 24 -5 30
-26 32 -14 2 -31 -4 -38 -12z"/>
<path d="M4384 1706 c-15 -40 21 -80 54 -60 37 24 21 74 -25 74 -13 0 -26 -6
-29 -14z"/>
<path d="M1716 1474 c-19 -18 -19 -20 -6 -45 18 -32 80 -19 80 17 0 17 -28 44
-45 44 -7 0 -21 -7 -29 -16z"/>
<path d="M4226 1474 c-29 -29 -12 -64 31 -64 19 0 43 25 43 44 0 10 -32 36
-45 36 -7 0 -21 -7 -29 -16z"/>
<path d="M1922 1278 c-25 -25 -4 -78 32 -78 10 0 36 32 36 45 0 17 -27 45 -44
45 -6 0 -17 -5 -24 -12z"/>
<path d="M4026 1274 c-9 -8 -16 -22 -16 -29 0 -13 26 -45 36 -45 19 0 44 24
44 43 0 43 -35 60 -64 31z"/>
<path d="M2151 1106 c-16 -19 -11 -46 12 -60 25 -16 52 4 52 40 0 24 -5 30
-26 32 -14 2 -31 -4 -38 -12z"/>
<path d="M3784 1106 c-15 -40 21 -80 54 -60 37 24 21 74 -25 74 -13 0 -26 -6
-29 -14z"/>
<path d="M2404 976 c-12 -49 43 -76 70 -33 15 24 -3 51 -37 55 -21 3 -28 -2
-33 -22z"/>
<path d="M3524 975 c-7 -29 10 -55 36 -55 26 0 43 26 36 55 -5 20 -13 25 -36
25 -23 0 -31 -5 -36 -25z"/>
<path d="M2686 914 c-19 -18 -19 -20 -6 -45 18 -32 80 -19 80 17 0 17 -28 44
-45 44 -7 0 -21 -7 -29 -16z"/>
<path d="M3256 914 c-29 -29 -12 -64 31 -64 19 0 43 25 43 44 0 10 -32 36 -45
36 -7 0 -21 -7 -29 -16z"/>
<path d="M2964 886 c-9 -23 -1 -48 19 -60 25 -16 52 4 52 40 0 25 -4 29 -33
32 -22 2 -34 -2 -38 -12z"/>
</g>
</svg>
